# xmcd CD database file
#
# Track frame offsets:
#	150
#	26565
#	50761
#	88972
#	115436
#	140130
#	184033
#	217804
#
# Disc length: 3263 seconds
#
# Revision: 0
# Processed by: cddbd v1.4PL0 Copyright (c) Steve Scherf et al.
# Submitted via: CDex 1.50Beta7
#
DISCID=770cbd08
DTITLE=Mary Ann McSweeney - thoughts of you
DYEAR=2000
DGENRE=Jazz
TTITLE0=R.B.'s Tribute
TTITLE1=Stillness
TTITLE2=Yes and No
TTITLE3=Winteron the Bay
TTITLE4=Amazing Grace
TTITLE5=Nana's Tango
TTITLE6=You Don't Know What Love Is
TTITLE7=Thoughts of You
EXTD=YEAR: 2000
EXTT0=
EXTT1=
EXTT2=
EXTT3=
EXTT4=
EXTT5=
EXTT6=
EXTT7=
PLAYORDER=
